# Blender v2.82 (sub 7) OBJ File: 'ship.blend'
# www.blender.org
mtllib ship.mtl
o Cube.001
v -1.000000 -1.000000 1.000000
v -0.769400 0.531115 0.130844
v -2.967850 -1.000000 -1.000000
v -1.000000 0.684148 -1.372513
v 1.000000 -1.000000 1.000000
v 0.769400 0.531115 0.130844
v 2.967850 -1.000000 -1.000000
v 1.000000 0.684148 -1.372513
v 0.000000 -1.000000 -5.947498
v 0.000000 1.000000 -1.000000
v 0.000000 -1.000000 1.000000
v 0.000000 1.000000 0.337699
vt 0.375000 0.000000
vt 0.625000 0.000000
vt 0.625000 0.250000
vt 0.375000 0.250000
vt 0.375000 0.000000
vt 0.375000 0.250000
vt 0.625000 0.250000
vt 0.625000 0.000000
vt 0.750000 0.500000
vt 0.875000 0.500000
vt 0.875000 0.750000
vt 0.750000 0.750000
vt 0.375000 0.375000
vt 0.625000 0.375000
vt 0.625000 0.875000
vt 0.625000 1.000000
vt 0.000000 0.000000
vt 0.000000 0.000000
vt 0.875000 0.750000
vt 0.875000 0.500000
vt 0.187500 0.000000
vn -0.6545 0.6165 0.4376
vn 0.6545 0.6165 0.4376
vn -0.4266 0.9006 0.0831
vn 0.5139 0.7625 -0.3930
vn -0.5139 0.7625 -0.3930
vn -0.2104 0.4005 0.8918
vn 0.0000 -1.0000 0.0000
vn 0.4266 0.9006 0.0831
vn 0.4902 0.4849 0.7242
vn -0.1314 0.3702 0.9196
usemtl None
s off
f 1/1/1 2/2/1 4/3/1 3/4/1
f 5/5/2 7/6/2 8/7/2 6/8/2
f 10/9/3 4/10/3 2/11/3 12/12/3
f 7/6/4 9/13/4 10/14/4 8/7/4
f 3/4/5 4/3/5 10/14/5 9/13/5
f 12/15/6 2/16/6 1/17/6 11/18/6
f 9/13/7 5/5/7 1/1/7
f 10/9/8 12/12/8 6/19/8 8/20/8
f 9/13/7 1/1/7 3/4/7
f 1/17/7 9/13/7 11/21/7
f 9/13/7 7/6/7 5/5/7
f 5/5/9 6/8/9 12/12/9
f 12/12/10 2/11/10 1/1/10 5/5/10
l 4 9
l 8 9
